<svg width="250" height="250" viewBox="0 0 250 250" fill="none" xmlns="http://www.w3.org/2000/svg">
<rect width="250" height="250" fill="white"/>
<path d="M34.872 211.688C34.872 212.669 34.9573 213.416 35.128 213.928C35.3413 214.397 35.6827 214.76 36.152 215.016C36.6213 215.272 37.3893 215.549 38.456 215.848L38.008 217H26.872L26.36 216.36L26.872 215.592C27.5973 214.611 28.088 213.629 28.344 212.648C28.6427 211.624 28.7707 210.28 28.728 208.616V191.4C28.728 190.333 28.6213 189.629 28.408 189.288C28.2373 188.904 27.8747 188.712 27.32 188.712H26.616C25.1653 188.712 24.0773 189.16 23.352 190.056C22.6267 190.909 21.88 192.467 21.112 194.728L19.832 194.28V186.28L20.472 185.704L21.24 186.28C22.0507 186.835 23.6293 187.112 25.976 187.112H37.688C40.0347 187.112 41.6133 186.835 42.424 186.28L43.192 185.704L43.896 186.28V194.28L42.552 194.728C41.7413 192.381 40.9733 190.803 40.248 189.992C39.5653 189.139 38.52 188.712 37.112 188.712H36.28C35.7253 188.712 35.3413 188.904 35.128 189.288C34.9573 189.629 34.872 190.333 34.872 191.4V211.688ZM60.558 217.576C56.1207 217.576 52.6007 216.189 49.998 213.416C47.3953 210.643 46.094 206.867 46.094 202.088C46.094 197.309 47.3953 193.533 49.998 190.76C52.6007 187.944 56.1207 186.536 60.558 186.536C64.9953 186.536 68.5153 187.944 71.118 190.76C73.7633 193.533 75.086 197.309 75.086 202.088C75.086 206.824 73.7633 210.6 71.118 213.416C68.5153 216.189 64.9953 217.576 60.558 217.576ZM60.366 216.104C61.9447 216.104 63.3313 215.528 64.526 214.376C65.7633 213.181 66.7233 211.539 67.406 209.448C68.0887 207.357 68.43 204.947 68.43 202.216C68.43 199.485 68.0887 197.032 67.406 194.856C66.766 192.68 65.8487 190.995 64.654 189.8C63.502 188.563 62.1793 187.944 60.686 187.944C59.1073 187.944 57.6993 188.563 56.462 189.8C55.2247 190.995 54.2647 192.701 53.582 194.92C52.8993 197.096 52.558 199.592 52.558 202.408C52.558 206.547 53.262 209.875 54.67 212.392C56.078 214.867 57.9767 216.104 60.366 216.104ZM106.071 214.824C104.535 216.659 102.53 217.576 100.055 217.576C98.519 217.576 97.303 217.235 96.407 216.552C95.5537 215.827 94.807 214.611 94.167 212.904L92.311 207.272C91.8843 206.12 91.5003 205.288 91.159 204.776C90.8177 204.221 90.2843 203.795 89.559 203.496L88.471 202.92L88.599 202.28C88.9403 202.323 89.3883 202.344 89.943 202.344C90.455 202.344 90.8177 202.323 91.031 202.28C92.6097 202.024 93.847 201.299 94.743 200.104C95.639 198.909 96.087 197.373 96.087 195.496C96.087 193.235 95.5537 191.443 94.487 190.12C93.4203 188.755 92.0123 188.072 90.263 188.072C88.343 188.072 87.383 188.968 87.383 190.76V208.616C87.383 210.28 87.511 211.624 87.767 212.648C88.0657 213.629 88.5777 214.611 89.303 215.592L89.815 216.36L89.303 217H78.167L77.719 215.848C78.7857 215.549 79.5537 215.272 80.023 215.016C80.4923 214.717 80.8123 214.333 80.983 213.864C81.1537 213.395 81.239 212.669 81.239 211.688V194.664C81.239 193.171 81.111 192.04 80.855 191.272C80.6417 190.461 80.1083 189.8 79.255 189.288L78.487 188.84L78.743 188.008C80.0657 187.581 81.751 187.24 83.799 186.984C85.8897 186.685 87.7457 186.536 89.367 186.536C93.4203 186.536 96.6203 187.347 98.967 188.968C101.314 190.589 102.487 192.808 102.487 195.624C102.487 197.587 101.847 199.336 100.567 200.872C99.3297 202.365 97.7297 203.368 95.767 203.88C97.303 204.563 98.3697 205.715 98.967 207.336L101.207 213.608C101.548 214.632 102.21 215.144 103.191 215.144C103.959 215.144 104.748 214.803 105.559 214.12L106.071 214.824ZM133.924 188.52C133.241 189.501 132.75 190.504 132.452 191.528C132.196 192.552 132.068 193.875 132.068 195.496V213.352C132.068 214.248 132.26 214.995 132.644 215.592L133.22 216.36L132.644 217H125.988L111.78 192.488V208.616C111.78 210.323 111.908 211.688 112.164 212.712C112.462 213.693 112.953 214.653 113.635 215.592L114.212 216.36L113.635 217H106.596L106.148 215.848C107.257 215.549 108.025 215.272 108.452 215.016C108.921 214.76 109.241 214.397 109.411 213.928C109.582 213.459 109.668 212.712 109.668 211.688V194.792C109.668 192.915 109.497 191.549 109.156 190.696C108.814 189.843 108.068 188.925 106.916 187.944L107.428 187.112H115.748L130.02 211.816V192.424C130.02 191.144 129.742 190.248 129.188 189.736C128.676 189.224 127.588 188.733 125.924 188.264L126.308 187.112H133.924L134.5 187.816L133.924 188.52ZM162.739 211.24C163.165 212.435 163.635 213.395 164.147 214.12C164.659 214.803 165.448 215.549 166.515 216.36L165.939 217H154.355L153.971 215.848L154.931 215.592C155.571 215.379 156.019 215.123 156.275 214.824C156.573 214.483 156.723 214.035 156.723 213.48C156.723 213.139 156.488 212.264 156.019 210.856L154.739 207.08H144.819L144.307 208.68C143.667 210.6 143.347 212.051 143.347 213.032C143.347 213.971 143.517 214.824 143.859 215.592L144.307 216.36L143.731 217H136.691L136.242 215.848L137.203 215.592C138.227 215.293 138.995 214.888 139.507 214.376C140.019 213.821 140.509 212.861 140.979 211.496L147.507 192.68C147.805 191.613 147.955 190.867 147.955 190.44C147.955 189.501 147.272 188.84 145.907 188.456L145.203 188.264L145.651 187.112H154.355L162.739 211.24ZM154.099 205.288L149.747 192.296L145.459 205.288H154.099ZM168.164 215.848C169.231 215.549 169.999 215.272 170.468 215.016C170.937 214.717 171.257 214.333 171.428 213.864C171.599 213.395 171.684 212.669 171.684 211.688V194.344C171.684 192.851 171.556 191.763 171.3 191.08C171.087 190.397 170.553 189.8 169.7 189.288L168.932 188.84L169.188 188.008C170.596 187.581 172.345 187.24 174.436 186.984C176.527 186.685 178.447 186.536 180.196 186.536C185.615 186.536 189.732 187.88 192.548 190.568C195.407 193.213 196.836 197.053 196.836 202.088C196.836 206.653 195.513 210.28 192.868 212.968C190.265 215.656 186.703 217 182.18 217H168.612L168.164 215.848ZM181.604 215.72C187.364 215.72 190.244 211.176 190.244 202.088C190.244 197.907 189.412 194.557 187.748 192.04C186.127 189.48 183.972 188.2 181.284 188.2C180.175 188.2 179.321 188.371 178.724 188.712C178.127 189.053 177.828 189.544 177.828 190.184V209.768C177.828 211.773 178.127 213.267 178.724 214.248C179.364 215.229 180.324 215.72 181.604 215.72ZM213.996 217.576C209.558 217.576 206.038 216.189 203.436 213.416C200.833 210.643 199.532 206.867 199.532 202.088C199.532 197.309 200.833 193.533 203.436 190.76C206.038 187.944 209.558 186.536 213.996 186.536C218.433 186.536 221.953 187.944 224.556 190.76C227.201 193.533 228.524 197.309 228.524 202.088C228.524 206.824 227.201 210.6 224.556 213.416C221.953 216.189 218.433 217.576 213.996 217.576ZM213.804 216.104C215.382 216.104 216.769 215.528 217.964 214.376C219.201 213.181 220.161 211.539 220.844 209.448C221.526 207.357 221.868 204.947 221.868 202.216C221.868 199.485 221.526 197.032 220.844 194.856C220.204 192.68 219.286 190.995 218.092 189.8C216.94 188.563 215.617 187.944 214.124 187.944C212.545 187.944 211.137 188.563 209.9 189.8C208.662 190.995 207.702 192.701 207.02 194.92C206.337 197.096 205.996 199.592 205.996 202.408C205.996 206.547 206.7 209.875 208.108 212.392C209.516 214.867 211.414 216.104 213.804 216.104Z" fill="#465DFE"/>
<path d="M57 37H99L81 75H39L57 37Z" fill="#465DFE"/>
<path d="M157 108H199L181 146H139L157 108Z" fill="#465DFE"/>
<path d="M120.5 37H210L192 75H148L115 146H69L120.5 37Z" fill="#465DFE"/>
</svg>
