<svg width="211" height="181" viewBox="0 0 211 181" fill="none" xmlns="http://www.w3.org/2000/svg">
<path d="M15.872 174.688C15.872 175.669 15.9573 176.416 16.128 176.928C16.3413 177.397 16.6827 177.76 17.152 178.016C17.6213 178.272 18.3893 178.549 19.456 178.848L19.008 180H7.872L7.36 179.36L7.872 178.592C8.59733 177.611 9.088 176.629 9.344 175.648C9.64267 174.624 9.77067 173.28 9.728 171.616V154.4C9.728 153.333 9.62133 152.629 9.408 152.288C9.23733 151.904 8.87467 151.712 8.32 151.712H7.616C6.16533 151.712 5.07733 152.16 4.352 153.056C3.62667 153.909 2.88 155.467 2.112 157.728L0.832 157.28V149.28L1.472 148.704L2.24 149.28C3.05067 149.835 4.62933 150.112 6.976 150.112H18.688C21.0347 150.112 22.6133 149.835 23.424 149.28L24.192 148.704L24.896 149.28V157.28L23.552 157.728C22.7413 155.381 21.9733 153.803 21.248 152.992C20.5653 152.139 19.52 151.712 18.112 151.712H17.28C16.7253 151.712 16.3413 151.904 16.128 152.288C15.9573 152.629 15.872 153.333 15.872 154.4V174.688ZM41.558 180.576C37.1207 180.576 33.6007 179.189 30.998 176.416C28.3953 173.643 27.094 169.867 27.094 165.088C27.094 160.309 28.3953 156.533 30.998 153.76C33.6007 150.944 37.1207 149.536 41.558 149.536C45.9953 149.536 49.5153 150.944 52.118 153.76C54.7633 156.533 56.086 160.309 56.086 165.088C56.086 169.824 54.7633 173.6 52.118 176.416C49.5153 179.189 45.9953 180.576 41.558 180.576ZM41.366 179.104C42.9447 179.104 44.3313 178.528 45.526 177.376C46.7633 176.181 47.7233 174.539 48.406 172.448C49.0887 170.357 49.43 167.947 49.43 165.216C49.43 162.485 49.0887 160.032 48.406 157.856C47.766 155.68 46.8487 153.995 45.654 152.8C44.502 151.563 43.1793 150.944 41.686 150.944C40.1073 150.944 38.6993 151.563 37.462 152.8C36.2247 153.995 35.2647 155.701 34.582 157.92C33.8993 160.096 33.558 162.592 33.558 165.408C33.558 169.547 34.262 172.875 35.67 175.392C37.078 177.867 38.9767 179.104 41.366 179.104ZM87.071 177.824C85.535 179.659 83.5297 180.576 81.055 180.576C79.519 180.576 78.303 180.235 77.407 179.552C76.5537 178.827 75.807 177.611 75.167 175.904L73.311 170.272C72.8843 169.12 72.5003 168.288 72.159 167.776C71.8177 167.221 71.2843 166.795 70.559 166.496L69.471 165.92L69.599 165.28C69.9403 165.323 70.3883 165.344 70.943 165.344C71.455 165.344 71.8177 165.323 72.031 165.28C73.6097 165.024 74.847 164.299 75.743 163.104C76.639 161.909 77.087 160.373 77.087 158.496C77.087 156.235 76.5537 154.443 75.487 153.12C74.4203 151.755 73.0123 151.072 71.263 151.072C69.343 151.072 68.383 151.968 68.383 153.76V171.616C68.383 173.28 68.511 174.624 68.767 175.648C69.0657 176.629 69.5777 177.611 70.303 178.592L70.815 179.36L70.303 180H59.167L58.719 178.848C59.7857 178.549 60.5537 178.272 61.023 178.016C61.4923 177.717 61.8123 177.333 61.983 176.864C62.1537 176.395 62.239 175.669 62.239 174.688V157.664C62.239 156.171 62.111 155.04 61.855 154.272C61.6417 153.461 61.1083 152.8 60.255 152.288L59.487 151.84L59.743 151.008C61.0657 150.581 62.751 150.24 64.799 149.984C66.8897 149.685 68.7457 149.536 70.367 149.536C74.4203 149.536 77.6203 150.347 79.967 151.968C82.3137 153.589 83.487 155.808 83.487 158.624C83.487 160.587 82.847 162.336 81.567 163.872C80.3297 165.365 78.7297 166.368 76.767 166.88C78.303 167.563 79.3697 168.715 79.967 170.336L82.207 176.608C82.5483 177.632 83.2097 178.144 84.191 178.144C84.959 178.144 85.7483 177.803 86.559 177.12L87.071 177.824ZM114.924 151.52C114.241 152.501 113.75 153.504 113.452 154.528C113.196 155.552 113.068 156.875 113.068 158.496V176.352C113.068 177.248 113.26 177.995 113.644 178.592L114.22 179.36L113.644 180H106.988L92.7795 155.488V171.616C92.7795 173.323 92.9075 174.688 93.1635 175.712C93.4622 176.693 93.9528 177.653 94.6355 178.592L95.2115 179.36L94.6355 180H87.5955L87.1475 178.848C88.2568 178.549 89.0248 178.272 89.4515 178.016C89.9208 177.76 90.2408 177.397 90.4115 176.928C90.5822 176.459 90.6675 175.712 90.6675 174.688V157.792C90.6675 155.915 90.4968 154.549 90.1555 153.696C89.8142 152.843 89.0675 151.925 87.9155 150.944L88.4275 150.112H96.7475L111.02 174.816V155.424C111.02 154.144 110.742 153.248 110.188 152.736C109.676 152.224 108.588 151.733 106.924 151.264L107.308 150.112H114.924L115.5 150.816L114.924 151.52ZM143.739 174.24C144.165 175.435 144.635 176.395 145.147 177.12C145.659 177.803 146.448 178.549 147.515 179.36L146.939 180H135.355L134.971 178.848L135.931 178.592C136.571 178.379 137.019 178.123 137.275 177.824C137.573 177.483 137.723 177.035 137.723 176.48C137.723 176.139 137.488 175.264 137.019 173.856L135.739 170.08H125.819L125.307 171.68C124.667 173.6 124.347 175.051 124.347 176.032C124.347 176.971 124.517 177.824 124.859 178.592L125.307 179.36L124.731 180H117.691L117.242 178.848L118.203 178.592C119.227 178.293 119.995 177.888 120.507 177.376C121.019 176.821 121.509 175.861 121.979 174.496L128.507 155.68C128.805 154.613 128.955 153.867 128.955 153.44C128.955 152.501 128.272 151.84 126.907 151.456L126.203 151.264L126.651 150.112H135.355L143.739 174.24ZM135.099 168.288L130.747 155.296L126.459 168.288H135.099ZM149.164 178.848C150.231 178.549 150.999 178.272 151.468 178.016C151.937 177.717 152.257 177.333 152.428 176.864C152.599 176.395 152.684 175.669 152.684 174.688V157.344C152.684 155.851 152.556 154.763 152.3 154.08C152.087 153.397 151.553 152.8 150.7 152.288L149.932 151.84L150.188 151.008C151.596 150.581 153.345 150.24 155.436 149.984C157.527 149.685 159.447 149.536 161.196 149.536C166.615 149.536 170.732 150.88 173.548 153.568C176.407 156.213 177.836 160.053 177.836 165.088C177.836 169.653 176.513 173.28 173.868 175.968C171.265 178.656 167.703 180 163.18 180H149.612L149.164 178.848ZM162.604 178.72C168.364 178.72 171.244 174.176 171.244 165.088C171.244 160.907 170.412 157.557 168.748 155.04C167.127 152.48 164.972 151.2 162.284 151.2C161.175 151.2 160.321 151.371 159.724 151.712C159.127 152.053 158.828 152.544 158.828 153.184V172.768C158.828 174.773 159.127 176.267 159.724 177.248C160.364 178.229 161.324 178.72 162.604 178.72ZM194.996 180.576C190.558 180.576 187.038 179.189 184.436 176.416C181.833 173.643 180.532 169.867 180.532 165.088C180.532 160.309 181.833 156.533 184.436 153.76C187.038 150.944 190.558 149.536 194.996 149.536C199.433 149.536 202.953 150.944 205.556 153.76C208.201 156.533 209.524 160.309 209.524 165.088C209.524 169.824 208.201 173.6 205.556 176.416C202.953 179.189 199.433 180.576 194.996 180.576ZM194.804 179.104C196.382 179.104 197.769 178.528 198.964 177.376C200.201 176.181 201.161 174.539 201.844 172.448C202.526 170.357 202.868 167.947 202.868 165.216C202.868 162.485 202.526 160.032 201.844 157.856C201.204 155.68 200.286 153.995 199.092 152.8C197.94 151.563 196.617 150.944 195.124 150.944C193.545 150.944 192.137 151.563 190.9 152.8C189.662 153.995 188.702 155.701 188.02 157.92C187.337 160.096 186.996 162.592 186.996 165.408C186.996 169.547 187.7 172.875 189.108 175.392C190.516 177.867 192.414 179.104 194.804 179.104Z" fill="#465DFE"/>
<path d="M38 0H80L62 38H20L38 0Z" fill="#465DFE"/>
<path d="M138 71H180L162 109H120L138 71Z" fill="#465DFE"/>
<path d="M101.5 0H191L173 38H129L96 109H50L101.5 0Z" fill="#465DFE"/>
</svg>
